<svg xmlns="http://www.w3.org/2000/svg" viewBox="0 0 1361.16 397.57"><g transform="translate(40 68.87) scale(2.8870)"><path d="M19.02 0.00L18.98 0.00L18.10 0.02L18.03 0.03L17.17 0.09L17.10 0.10L16.25 0.20L16.18 0.21L15.33 0.36L15.26 0.37L14.42 0.56L14.35 0.58L13.52 0.81L13.45 0.83L12.63 1.10L12.57 1.12L11.76 1.43L11.70 1.46L10.91 1.81L10.85 1.84L10.07 2.23L10.01 2.26L9.26 2.69L9.20 2.72L8.47 3.18L8.42 3.22L7.71 3.72L7.65 3.76L6.97 4.29L6.92 4.34L6.27 4.90L6.22 4.95L5.59 5.54L5.54 5.59L4.95 6.22L4.90 6.27L4.34 6.92L4.29 6.97L3.76 7.65L3.72 7.71L3.22 8.42L3.18 8.47L2.72 9.20L2.69 9.26L2.26 10.01L2.23 10.07L1.84 10.85L1.81 10.91L1.46 11.70L1.43 11.76L1.12 12.57L1.10 12.63L0.83 13.45L0.81 13.52L0.58 14.35L0.56 14.42L0.37 15.26L0.36 15.33L0.21 16.18L0.20 16.25L0.10 17.10L0.09 17.17L0.03 18.03L0.02 18.10L0.00 18.98L-0.00 19.02L-0.00 80.98L0.00 81.02L0.02 81.90L0.03 81.97L0.09 82.83L0.10 82.90L0.20 83.75L0.21 83.82L0.36 84.67L0.37 84.74L0.56 85.58L0.58 85.65L0.81 86.48L0.83 86.55L1.10 87.37L1.12 87.43L1.43 88.24L1.46 88.30L1.81 89.09L1.84 89.15L2.23 89.93L2.26 89.99L2.69 90.74L2.72 90.80L3.18 91.53L3.22 91.58L3.72 92.29L3.76 92.35L4.29 93.03L4.34 93.08L4.90 93.73L4.95 93.78L5.54 94.41L5.59 94.46L6.22 95.05L6.27 95.10L6.92 95.66L6.97 95.71L7.65 96.24L7.71 96.28L8.42 96.78L8.47 96.82L9.20 97.28L9.26 97.31L10.01 97.74L10.07 97.77L10.85 98.16L10.91 98.19L11.70 98.54L11.76 98.57L12.57 98.88L12.63 98.90L13.45 99.17L13.52 99.19L14.35 99.42L14.42 99.44L15.26 99.63L15.33 99.64L16.18 99.79L16.25 99.80L17.10 99.90L17.17 99.91L18.03 99.97L18.10 99.98L18.98 100.00L19.02 100.00L65.48 100.00L65.52 100.00L66.82 99.97L66.88 99.96L68.16 99.87L68.23 99.86L69.50 99.71L69.57 99.70L70.83 99.48L70.90 99.46L72.15 99.18L72.22 99.17L73.45 98.83L73.52 98.81L74.73 98.40L74.80 98.38L75.99 97.92L76.06 97.89L77.23 97.37L77.29 97.34L78.43 96.77L78.49 96.74L79.61 96.10L79.67 96.07L80.75 95.38L80.81 95.35L81.85 94.61L81.91 94.57L82.92 93.78L82.97 93.74L83.94 92.90L83.99 92.85L84.92 91.97L84.97 91.92L85.85 90.99L85.90 90.94L86.74 89.97L86.78 89.92L87.57 88.91L87.61 88.85L88.35 87.81L88.38 87.75L89.07 86.67L89.10 86.61L89.74 85.49L89.77 85.43L90.34 84.29L90.37 84.23L90.89 83.06L90.92 82.99L91.38 81.80L91.40 81.73L91.81 80.52L91.83 80.45L92.17 79.22L92.18 79.15L92.46 77.90L92.48 77.83L92.70 76.57L92.71 76.50L92.86 75.23L92.87 75.16L92.96 73.88L92.97 73.82L93.00 72.52L93.00 72.48L93.00 71.52L93.00 71.48L92.97 70.18L92.96 70.12L92.87 68.84L92.86 68.77L92.71 67.50L92.70 67.43L92.48 66.17L92.46 66.10L92.18 64.85L92.17 64.78L91.83 63.55L91.81 63.48L91.40 62.27L91.38 62.20L90.92 61.01L90.89 60.94L90.37 59.77L90.34 59.71L89.77 58.57L89.74 58.51L89.10 57.39L89.07 57.33L88.38 56.25L88.35 56.19L87.61 55.15L87.57 55.09L86.78 54.08L86.74 54.03L85.90 53.06L85.85 53.01L84.97 52.08L84.92 52.03L83.99 51.15L83.94 51.10L82.97 50.26L82.92 50.22L81.91 49.43L81.85 49.39L80.81 48.65L80.75 48.62L80.03 48.16L80.00 48.14L80.02 48.12L80.85 47.15L80.89 47.10L81.67 46.11L81.71 46.06L82.43 45.03L82.47 44.97L83.14 43.91L83.18 43.85L83.79 42.76L83.83 42.70L84.39 41.57L84.42 41.51L84.93 40.36L84.96 40.30L85.41 39.13L85.43 39.06L85.83 37.87L85.85 37.80L86.18 36.59L86.20 36.53L86.47 35.30L86.49 35.23L86.70 34.00L86.71 33.93L86.87 32.68L86.87 32.61L86.96 31.36L86.97 31.29L86.97 31.12L86.97 30.98L86.95 30.85L86.93 30.72L86.88 30.59L86.83 30.47L86.77 30.35L86.69 30.24L86.61 30.14L86.51 30.05L86.41 29.96L86.30 29.89L86.18 29.82L86.06 29.77L85.93 29.73L85.80 29.70L85.67 29.69L85.54 29.68L85.34 29.69L85.30 29.69L84.93 29.68L84.90 29.68L84.53 29.65L84.50 29.65L84.13 29.60L84.10 29.60L83.74 29.53L83.70 29.53L83.34 29.45L83.31 29.44L82.96 29.34L82.92 29.33L82.57 29.21L82.54 29.20L82.20 29.07L82.17 29.06L81.83 28.91L81.80 28.89L81.47 28.73L81.44 28.71L81.12 28.53L81.09 28.51L80.78 28.32L80.75 28.30L80.45 28.08L80.42 28.06L80.13 27.84L80.10 27.82L79.83 27.58L79.80 27.55L79.53 27.30L79.51 27.27L79.26 27.01L79.23 26.98L78.99 26.70L78.97 26.68L78.74 26.39L78.72 26.36L78.51 26.06L78.49 26.03L78.29 25.70L78.29 25.70L78.23 25.62L78.14 25.51L78.05 25.42L77.94 25.33L77.83 25.25L77.71 25.19L77.59 25.14L77.46 25.09L77.33 25.07L77.19 25.05L77.06 25.05L76.92 25.06L76.79 25.08L76.66 25.12L76.39 25.21L76.36 25.22L76.00 25.32L75.97 25.32L75.61 25.40L75.58 25.41L75.21 25.47L75.18 25.48L74.82 25.52L74.78 25.53L74.41 25.56L74.38 25.56L74.01 25.57L73.98 25.57L73.61 25.56L73.58 25.56L73.21 25.53L73.17 25.52L72.81 25.48L72.77 25.47L72.41 25.41L72.38 25.40L72.02 25.32L71.99 25.32L71.63 25.22L71.60 25.21L71.25 25.09L71.22 25.08L70.87 24.95L70.84 24.94L70.50 24.79L70.47 24.77L70.14 24.61L70.11 24.59L69.79 24.41L69.76 24.39L69.45 24.19L69.42 24.17L69.12 23.96L69.10 23.94L68.81 23.72L68.78 23.69L68.50 23.45L68.48 23.43L68.21 23.18L68.18 23.15L67.93 22.89L67.91 22.86L67.67 22.58L67.65 22.55L67.42 22.26L67.40 22.24L67.19 21.94L67.17 21.91L66.97 21.60L66.95 21.57L66.77 21.25L66.76 21.22L66.59 20.89L66.57 20.86L66.43 20.52L66.41 20.49L66.28 20.14L66.27 20.11L66.15 19.76L66.14 19.73L66.04 19.38L66.04 19.34L65.96 18.98L65.95 18.95L65.89 18.59L65.88 18.55L65.84 18.19L65.83 18.15L65.81 17.79L65.80 17.75L65.80 17.38L65.80 17.35L65.80 16.98L65.81 16.95L65.83 16.58L65.84 16.55L65.88 16.18L65.88 16.17L65.90 16.03L65.90 15.90L65.88 15.76L65.86 15.63L65.82 15.50L65.77 15.38L65.71 15.26L65.63 15.14L65.55 15.04L65.46 14.94L65.35 14.85L65.24 14.78L65.12 14.71L65.00 14.65L64.87 14.61L64.72 14.57L64.68 14.56L64.33 14.44L64.30 14.43L63.96 14.30L63.93 14.29L63.59 14.14L63.56 14.12L63.23 13.96L63.20 13.94L62.88 13.76L62.85 13.74L62.54 13.54L62.51 13.53L62.21 13.31L62.18 13.29L61.89 13.07L61.86 13.04L61.59 12.80L61.56 12.78L61.29 12.53L61.27 12.50L61.02 12.24L60.99 12.21L60.75 11.93L60.73 11.91L60.50 11.62L60.48 11.59L60.27 11.29L60.25 11.26L60.06 10.95L60.04 10.92L59.86 10.60L59.84 10.57L59.67 10.24L59.66 10.21L59.51 9.87L59.50 9.84L59.36 9.50L59.35 9.46L59.24 9.11L59.23 9.08L59.13 8.73L59.12 8.69L59.04 8.33L59.03 8.30L58.97 7.94L58.97 7.90L58.92 7.54L58.92 7.50L58.89 7.14L58.89 7.10L58.88 6.73L58.88 6.70L58.89 6.33L58.89 6.30L58.92 5.93L58.92 5.90L58.97 5.53L58.97 5.50L59.03 5.13L59.04 5.10L59.12 4.74L59.13 4.71L59.23 4.35L59.24 4.32L59.35 3.97L59.36 3.94L59.50 3.60L59.51 3.56L59.66 3.23L59.67 3.20L59.84 2.87L59.86 2.84L60.04 2.52L60.06 2.49L60.26 2.16L60.26 2.16L60.32 2.06L60.38 1.94L60.43 1.81L60.46 1.67L60.48 1.54L60.49 1.40L60.48 1.26L60.46 1.13L60.43 0.99L60.38 0.86L60.32 0.74L60.25 0.62L60.17 0.51L60.08 0.41L59.98 0.32L59.86 0.24L59.75 0.17L59.62 0.11L59.49 0.06L59.36 0.03L59.22 0.01L59.09 0.00L19.02 0.00Z" fill="#F37321"/><path d="M71.83 60.06L71.93 60.00L72.03 59.93L72.12 59.86L72.21 59.78L72.30 59.70L72.38 59.61L72.46 59.52L72.53 59.43L72.60 59.33L72.66 59.23L72.72 59.13L72.77 59.03L72.82 58.92L72.86 58.81L72.90 58.70L72.93 58.58L72.95 58.47L72.97 58.35L72.99 58.24L73.00 58.12L73.00 58.00L73.00 57.88L72.99 57.76L72.97 57.65L72.95 57.53L72.93 57.42L72.90 57.30L72.86 57.19L72.82 57.08L72.77 56.97L72.72 56.87L72.66 56.77L72.60 56.67L72.53 56.57L72.46 56.48L72.38 56.39L72.30 56.30L72.21 56.22L72.12 56.14L72.03 56.07L71.93 56.00L71.83 55.94L71.73 55.88L71.63 55.83L71.52 55.78L71.41 55.74L71.30 55.70L71.18 55.67L71.07 55.65L70.95 55.63L70.84 55.61L70.72 55.60L70.60 55.60L8.40 55.60L8.28 55.60L8.16 55.61L8.05 55.63L7.93 55.65L7.82 55.67L7.70 55.70L7.59 55.74L7.48 55.78L7.37 55.83L7.27 55.88L7.17 55.94L7.07 56.00L6.97 56.07L6.88 56.14L6.79 56.22L6.70 56.30L6.62 56.39L6.54 56.48L6.47 56.57L6.40 56.67L6.34 56.77L6.28 56.87L6.23 56.97L6.18 57.08L6.14 57.19L6.10 57.30L6.07 57.42L6.05 57.53L6.03 57.65L6.01 57.76L6.00 57.88L6.00 58.00L6.00 58.12L6.01 58.24L6.03 58.35L6.05 58.47L6.07 58.58L6.10 58.70L6.14 58.81L6.18 58.92L6.23 59.03L6.28 59.13L6.34 59.23L6.40 59.33L6.47 59.43L6.54 59.52L6.62 59.61L6.70 59.70L6.79 59.78L6.88 59.86L6.97 59.93L7.07 60.00L7.17 60.06L7.18 60.07L7.20 60.31L7.36 61.41L7.56 62.48L7.80 63.52L8.07 64.53L8.37 65.50L8.71 66.45L9.09 67.36L9.49 68.25L9.92 69.10L10.39 69.92L10.89 70.72L11.41 71.48L11.96 72.22L12.54 72.93L13.14 73.61L13.77 74.26L14.42 74.89L15.09 75.49L15.79 76.06L16.51 76.61L17.24 77.13L18.00 77.62L18.77 78.10L19.57 78.54L20.37 78.97L21.20 79.37L22.04 79.75L22.89 80.10L23.75 80.43L24.63 80.74L25.52 81.03L26.41 81.30L27.32 81.54L27.51 81.59L27.51 81.62L27.50 81.71L27.50 81.80L27.50 85.70L27.50 85.79L27.51 85.88L27.52 85.96L27.53 86.05L27.55 86.14L27.58 86.22L27.61 86.31L27.64 86.39L27.67 86.47L27.71 86.55L27.76 86.63L27.80 86.70L27.85 86.77L27.91 86.84L27.97 86.91L28.03 86.97L28.09 87.03L28.16 87.09L28.23 87.15L28.30 87.20L28.37 87.24L28.45 87.29L28.53 87.33L28.61 87.36L28.69 87.39L28.78 87.42L28.86 87.45L28.95 87.47L29.04 87.48L29.12 87.49L29.21 87.50L29.30 87.50L49.70 87.50L49.79 87.50L49.88 87.49L49.96 87.48L50.05 87.47L50.14 87.45L50.22 87.42L50.31 87.39L50.39 87.36L50.47 87.33L50.55 87.29L50.63 87.24L50.70 87.20L50.77 87.15L50.84 87.09L50.91 87.03L50.97 86.97L51.03 86.91L51.09 86.84L51.15 86.77L51.20 86.70L51.24 86.63L51.29 86.55L51.33 86.47L51.36 86.39L51.39 86.31L51.42 86.22L51.45 86.14L51.47 86.05L51.48 85.96L51.49 85.88L51.50 85.79L51.50 85.70L51.50 81.80L51.50 81.71L51.49 81.62L51.49 81.59L51.68 81.54L52.59 81.30L53.48 81.03L54.37 80.74L55.25 80.43L56.11 80.10L56.96 79.75L57.80 79.37L58.63 78.97L59.43 78.54L60.23 78.10L61.00 77.62L61.76 77.13L62.49 76.61L63.21 76.06L63.91 75.49L64.58 74.89L65.23 74.26L65.86 73.61L66.46 72.93L67.04 72.22L67.59 71.48L68.11 70.72L68.61 69.92L69.08 69.10L69.51 68.25L69.91 67.36L70.29 66.45L70.63 65.50L70.93 64.53L71.20 63.52L71.44 62.48L71.64 61.41L71.80 60.31L71.82 60.07L71.83 60.06Z" fill="#FFFFFF"/><path d="M42.40 68.30L42.40 68.32L42.40 68.35L42.41 68.38L42.41 68.41L42.42 68.44L42.42 68.46L42.43 68.49L42.44 68.52L42.46 68.55L42.47 68.57L42.48 68.60L42.50 68.63L42.51 68.65L42.53 68.67L42.55 68.70L42.57 68.72L42.59 68.74L42.62 68.76L42.64 68.78L42.66 68.79L42.69 68.81L42.71 68.83L42.74 68.84L42.77 68.85L42.79 68.86L42.82 68.87L42.85 68.88L42.88 68.89L42.89 68.89L43.46 68.99L43.46 68.99L43.46 68.99L43.46 68.99L44.03 69.09L44.03 69.09L44.03 69.09L44.03 69.09L44.60 69.18L44.60 69.18L44.60 69.18L44.61 69.18L45.17 69.26L45.17 69.27L45.17 69.27L45.18 69.27L45.74 69.34L45.74 69.34L45.75 69.34L45.75 69.34L46.31 69.41L46.31 69.41L46.32 69.41L46.32 69.41L46.88 69.47L46.88 69.47L46.89 69.47L46.89 69.47L47.45 69.52L47.45 69.52L47.46 69.52L47.46 69.52L48.02 69.56L48.02 69.57L48.03 69.57L48.03 69.57L48.59 69.60L48.59 69.60L48.60 69.60L48.60 69.60L49.16 69.62L49.16 69.62L49.17 69.62L49.17 69.62L49.73 69.63L49.73 69.63L49.74 69.63L49.74 69.63L50.30 69.63L50.30 69.63L50.31 69.63L50.31 69.63L50.86 69.62L50.87 69.62L50.87 69.62L50.88 69.62L51.43 69.59L51.43 69.59L51.44 69.59L51.44 69.59L51.99 69.56L52.00 69.56L52.00 69.56L52.01 69.55L52.56 69.51L52.56 69.51L52.57 69.51L52.57 69.50L53.12 69.44L53.12 69.44L53.13 69.44L53.13 69.44L53.67 69.37L53.68 69.37L53.69 69.37L53.69 69.37L54.23 69.28L54.23 69.28L54.24 69.28L54.25 69.28L54.78 69.18L54.79 69.17L54.79 69.17L54.80 69.17L55.33 69.06L55.34 69.06L55.34 69.06L55.35 69.06L55.88 68.93L55.88 68.93L55.89 68.93L55.89 68.92L56.42 68.78L56.42 68.78L56.43 68.78L56.43 68.78L56.96 68.63L56.96 68.62L56.97 68.62L56.97 68.62L57.49 68.45L57.49 68.45L57.50 68.45L57.50 68.45L58.02 68.27L58.02 68.27L58.03 68.26L58.03 68.26L58.54 68.07L58.54 68.07L58.55 68.06L58.55 68.06L59.06 67.85L59.06 67.85L59.07 67.85L59.07 67.85L59.57 67.63L59.57 67.62L59.58 67.62L59.58 67.62L60.07 67.39L60.08 67.39L60.08 67.38L60.09 67.38L60.57 67.13L60.58 67.13L60.58 67.13L60.59 67.13L61.06 66.87L61.07 66.87L61.07 66.86L61.08 66.86L61.55 66.59L61.55 66.59L61.56 66.59L61.56 66.58L62.03 66.30L62.03 66.30L62.04 66.30L62.04 66.29L62.50 66.00L62.50 66.00L62.51 66.00L62.51 65.99L62.96 65.69L62.97 65.69L62.97 65.68L62.98 65.68L63.42 65.37L63.42 65.37L63.43 65.36L63.43 65.36L63.87 65.04L63.87 65.03L63.88 65.03L63.88 65.03L64.31 64.69L64.32 64.69L64.32 64.69L64.32 64.69L64.75 64.34L64.75 64.34L64.76 64.34L64.76 64.33L65.18 63.98L65.18 63.98L65.18 63.98L65.19 63.97L65.60 63.61L65.60 63.61L65.60 63.61L65.61 63.61L66.01 63.24L66.01 63.23L66.02 63.23L66.02 63.23L66.42 62.85L66.42 62.85L66.43 62.85L66.43 62.85L66.82 62.46L66.82 62.46L66.83 62.46L66.83 62.45L67.22 62.06L67.22 62.06L67.22 62.06L67.22 62.06L67.60 61.66L67.61 61.65L67.63 61.63L67.65 61.61L67.67 61.58L67.69 61.56L67.70 61.53L67.71 61.50L67.73 61.48L67.74 61.45L67.75 61.42L67.75 61.39L67.76 61.36L67.77 61.34L67.77 61.31L67.77 61.28L67.77 61.25L67.77 61.22L67.77 61.19L67.77 61.16L67.76 61.13L67.75 61.10L67.75 61.07L67.74 61.04L67.73 61.02L67.72 60.99L67.70 60.96L67.69 60.94L67.67 60.91L67.66 60.90L67.32 60.41L67.31 60.40L67.29 60.37L67.27 60.35L67.25 60.33L67.23 60.31L67.21 60.29L67.18 60.27L67.16 60.26L67.14 60.24L67.11 60.23L67.08 60.21L67.06 60.20L67.03 60.19L67.00 60.18L66.97 60.17L66.94 60.17L66.91 60.16L66.89 60.16L66.86 60.16L66.83 60.15L66.80 60.16L66.77 60.16L66.74 60.16L66.71 60.17L66.68 60.17L66.65 60.18L66.62 60.19L66.60 60.20L66.58 60.21L66.09 60.43L65.60 60.63L65.12 60.83L64.63 61.02L64.15 61.21L63.66 61.39L63.18 61.56L62.70 61.72L62.21 61.88L61.73 62.04L61.25 62.19L60.77 62.34L60.30 62.48L59.82 62.62L59.34 62.76L58.87 62.90L58.39 63.03L57.92 63.17L57.44 63.30L56.97 63.44L56.50 63.57L56.02 63.70L55.55 63.83L55.07 63.97L54.60 64.10L54.12 64.24L53.64 64.37L53.16 64.51L52.68 64.64L52.19 64.78L51.71 64.92L51.22 65.06L50.72 65.20L50.23 65.33L49.73 65.47L49.23 65.61L48.72 65.75L48.21 65.88L47.70 66.02L47.18 66.15L46.66 66.28L46.13 66.41L45.60 66.54L45.07 66.66L44.53 66.78L43.99 66.89L43.44 67.00L42.89 67.11L42.87 67.11L42.84 67.12L42.81 67.13L42.79 67.14L42.76 67.15L42.73 67.16L42.71 67.18L42.68 67.19L42.65 67.21L42.63 67.23L42.61 67.24L42.59 67.26L42.56 67.29L42.54 67.31L42.53 67.33L42.51 67.35L42.49 67.38L42.48 67.40L42.46 67.43L42.45 67.46L42.44 67.49L42.43 67.51L42.42 67.54L42.41 67.57L42.41 67.60L42.40 67.63L42.40 67.66L42.40 67.69L42.40 67.70L42.40 68.30Z" fill="#F37321"/><path d="M34.53 55.39L34.55 55.37L34.57 55.34L34.60 55.29L34.61 55.27L34.63 55.21L34.64 55.18L34.66 55.13L34.67 55.10L34.68 55.04L34.69 55.01L34.70 54.95L34.70 54.92L34.70 54.86L34.70 54.83L34.69 54.77L34.69 54.74L34.68 54.68L34.67 54.65L34.65 54.59L34.64 54.57L34.62 54.51L34.61 54.48L34.58 54.43L34.57 54.40L34.53 54.35L34.52 54.33L34.48 54.28L34.46 54.26L34.44 54.24L33.72 53.52L33.19 52.88L32.77 52.28L32.46 51.72L32.24 51.22L32.10 50.76L32.03 50.35L32.00 49.97L32.02 49.61L32.07 49.24L32.14 48.87L32.25 48.47L32.38 48.04L32.54 47.57L32.74 47.08L32.96 46.54L33.22 45.96L33.51 45.35L33.82 44.70L34.16 44.01L34.51 43.29L34.89 42.53L34.89 42.53L34.89 42.53L34.89 42.53L35.28 41.74L35.28 41.73L35.28 41.73L35.28 41.73L35.67 40.91L35.67 40.91L35.68 40.90L35.68 40.90L36.07 40.05L36.08 40.05L36.08 40.04L36.08 40.04L36.47 39.16L36.48 39.15L36.48 39.15L36.48 39.14L36.87 38.23L36.87 38.23L36.87 38.22L36.88 38.22L37.25 37.28L37.26 37.27L37.26 37.26L37.26 37.26L37.62 36.29L37.63 36.28L37.63 36.27L37.63 36.26L37.97 35.27L37.97 35.26L37.98 35.25L37.98 35.24L38.29 34.22L38.29 34.21L38.30 34.20L38.30 34.19L38.58 33.14L38.58 33.13L38.58 33.12L38.58 33.10L38.83 32.03L38.83 32.02L38.83 32.01L38.83 31.99L39.03 30.90L39.03 30.88L39.03 30.87L39.04 30.86L39.18 29.74L39.18 29.72L39.19 29.71L39.19 29.69L39.28 28.56L39.28 28.54L39.28 28.53L39.28 28.51L39.31 27.36L39.31 27.34L39.31 27.33L39.31 27.31L39.28 26.15L39.28 26.13L39.28 26.11L39.28 26.09L39.18 24.92L39.17 24.90L39.17 24.89L39.17 24.87L38.99 23.69L38.99 23.67L38.99 23.65L38.98 23.64L38.73 22.46L38.73 22.44L38.72 22.42L38.72 22.40L38.39 21.22L38.38 21.21L38.38 21.19L38.37 21.17L37.96 20.00L37.96 19.98L37.95 19.96L37.94 19.94L37.45 18.78L37.44 18.76L37.43 18.74L37.43 18.73L36.85 17.57L36.84 17.55L36.83 17.53L36.83 17.52L36.17 16.37L36.16 16.35L36.15 16.34L36.14 16.32L35.39 15.18L35.38 15.17L35.37 15.15L35.36 15.14L34.54 14.02L34.53 14.00L34.51 13.98L34.47 13.93L34.45 13.91L34.41 13.87L34.39 13.86L34.34 13.82L34.32 13.81L34.27 13.78L34.24 13.76L34.19 13.74L34.17 13.72L34.11 13.70L34.08 13.70L34.03 13.68L34.00 13.67L33.95 13.66L33.92 13.66L33.86 13.66L33.83 13.66L33.77 13.66L33.74 13.66L33.69 13.66L33.66 13.67L33.60 13.68L33.58 13.69L33.52 13.71L33.49 13.72L33.44 13.74L33.42 13.75L33.39 13.76L31.75 14.65L31.73 14.67L31.70 14.68L31.65 14.72L31.63 14.73L31.59 14.77L31.57 14.79L31.53 14.83L31.51 14.85L31.47 14.89L31.45 14.92L31.42 14.96L31.41 14.99L31.38 15.04L31.37 15.06L31.34 15.12L31.33 15.14L31.32 15.20L31.31 15.22L31.30 15.28L31.29 15.31L31.28 15.36L31.28 15.39L31.28 15.45L31.28 15.48L31.29 15.54L31.29 15.56L31.30 15.62L31.30 15.65L31.32 15.70L31.33 15.73L31.34 15.76L31.79 16.97L32.12 18.09L32.37 19.17L32.53 20.20L32.63 21.20L32.66 22.15L32.64 23.07L32.56 23.95L32.43 24.81L32.27 25.65L32.06 26.47L31.82 27.27L31.55 28.07L31.25 28.86L30.93 29.64L30.59 30.42L30.22 31.21L29.83 31.99L29.44 32.78L29.03 33.58L28.61 34.38L28.18 35.18L28.18 35.18L28.18 35.18L28.18 35.18L27.76 36.00L27.76 36.00L27.76 36.00L27.76 36.00L27.34 36.82L27.34 36.82L27.34 36.82L27.33 36.83L26.92 37.65L26.92 37.66L26.92 37.66L26.92 37.66L26.52 38.50L26.51 38.50L26.51 38.51L26.51 38.51L26.12 39.35L26.12 39.36L26.12 39.37L26.11 39.37L25.75 40.23L25.75 40.23L25.74 40.24L25.74 40.25L25.40 41.11L25.39 41.12L25.39 41.13L25.39 41.14L25.08 42.02L25.07 42.03L25.07 42.04L25.07 42.05L24.79 42.95L24.79 42.96L24.78 42.97L24.78 42.99L24.55 43.89L24.54 43.91L24.54 43.92L24.54 43.94L24.35 44.86L24.35 44.88L24.35 44.90L24.34 44.91L24.22 45.85L24.21 45.87L24.21 45.89L24.21 45.91L24.15 46.86L24.15 46.88L24.15 46.91L24.14 46.93L24.16 47.89L24.16 47.91L24.16 47.94L24.16 47.96L24.26 48.93L24.26 48.95L24.26 48.98L24.27 49.01L24.46 49.96L24.46 49.99L24.47 50.02L24.48 50.05L24.76 50.99L24.77 51.02L24.78 51.05L24.79 51.08L25.18 51.99L25.19 52.02L25.21 52.05L25.22 52.07L25.70 52.94L25.72 52.97L25.74 53.00L25.75 53.02L26.33 53.84L26.35 53.87L26.36 53.89L26.38 53.91L27.05 54.68L27.07 54.70L27.09 54.72L27.11 54.74L27.85 55.44L27.87 55.46L27.89 55.48L27.91 55.50L28.73 56.15L28.75 56.16L28.77 56.18L28.79 56.19L29.69 56.80L29.71 56.81L29.73 56.82L29.74 56.83L30.72 57.40L30.74 57.41L30.76 57.42L30.77 57.42L31.80 57.93L31.83 57.95L31.86 57.96L31.91 57.98L31.94 57.99L32.00 58.00L32.03 58.01L32.09 58.02L32.12 58.02L32.18 58.03L32.21 58.03L32.27 58.02L32.30 58.02L32.36 58.01L32.39 58.01L32.45 57.99L32.48 57.98L32.54 57.96L32.56 57.95L32.62 57.92L32.65 57.91L32.70 57.88L32.72 57.86L32.77 57.82L32.79 57.80L32.84 57.76L32.86 57.74L32.90 57.69L32.92 57.67L32.94 57.65L34.53 55.39Z" fill="#FFFFFF"/><path d="M45.43 55.72L45.44 55.69L45.46 55.67L45.50 55.62L45.51 55.60L45.54 55.55L45.55 55.52L45.58 55.47L45.59 55.44L45.60 55.38L45.61 55.35L45.63 55.30L45.63 55.27L45.64 55.21L45.64 55.18L45.64 55.12L45.64 55.09L45.64 55.03L45.63 55.00L45.62 54.95L45.61 54.92L45.60 54.86L45.59 54.83L45.57 54.78L45.56 54.75L45.53 54.70L45.52 54.67L45.48 54.62L45.47 54.60L45.45 54.58L45.02 54.02L44.71 53.55L44.48 53.11L44.32 52.70L44.22 52.32L44.15 51.98L44.13 51.66L44.14 51.35L44.17 51.05L44.22 50.73L44.30 50.41L44.39 50.06L44.51 49.70L44.65 49.31L44.81 48.90L44.99 48.46L45.19 48.00L45.41 47.51L45.64 46.99L45.89 46.45L46.16 45.89L46.16 45.88L46.43 45.30L46.43 45.29L46.43 45.29L46.43 45.29L46.72 44.68L46.72 44.68L46.72 44.68L46.72 44.68L47.00 44.04L47.00 44.04L47.01 44.04L47.01 44.04L47.29 43.38L47.29 43.38L47.30 43.38L47.30 43.37L47.58 42.70L47.58 42.70L47.59 42.69L47.59 42.69L47.87 41.99L47.87 41.99L47.87 41.98L47.87 41.98L48.14 41.27L48.15 41.26L48.15 41.25L48.15 41.25L48.41 40.52L48.41 40.51L48.41 40.50L48.42 40.49L48.66 39.75L48.66 39.74L48.67 39.73L48.67 39.72L48.89 38.96L48.90 38.95L48.90 38.94L48.90 38.93L49.10 38.14L49.11 38.13L49.11 38.12L49.11 38.11L49.29 37.31L49.29 37.30L49.29 37.29L49.29 37.28L49.44 36.47L49.44 36.45L49.44 36.44L49.44 36.43L49.56 35.60L49.56 35.59L49.56 35.58L49.56 35.56L49.63 34.72L49.64 34.71L49.64 34.70L49.64 34.68L49.67 33.83L49.67 33.82L49.67 33.80L49.67 33.79L49.66 32.93L49.66 32.92L49.66 32.90L49.66 32.88L49.60 32.03L49.59 32.01L49.59 31.99L49.59 31.97L49.48 31.12L49.48 31.10L49.47 31.08L49.47 31.06L49.31 30.21L49.30 30.19L49.30 30.17L49.29 30.15L49.08 29.30L49.07 29.28L49.07 29.26L49.06 29.24L48.78 28.40L48.78 28.38L48.77 28.36L48.76 28.35L48.43 27.51L48.42 27.49L48.42 27.48L48.41 27.46L48.02 26.64L48.01 26.62L48.00 26.60L47.99 26.59L47.54 25.78L47.53 25.76L47.52 25.75L47.51 25.73L47.00 24.93L46.99 24.92L46.98 24.90L46.97 24.89L46.42 24.12L46.40 24.10L46.38 24.08L46.34 24.03L46.32 24.01L46.27 23.97L46.25 23.95L46.20 23.91L46.18 23.90L46.12 23.87L46.10 23.85L46.04 23.83L46.02 23.82L45.96 23.80L45.93 23.79L45.87 23.77L45.84 23.77L45.78 23.76L45.75 23.76L45.69 23.75L45.66 23.76L45.60 23.76L45.57 23.76L45.51 23.77L45.48 23.78L45.43 23.79L45.40 23.80L45.34 23.82L45.31 23.84L45.29 23.85L43.91 24.54L43.88 24.56L43.86 24.57L43.80 24.60L43.78 24.62L43.73 24.66L43.71 24.68L43.67 24.72L43.65 24.74L43.61 24.78L43.59 24.81L43.56 24.86L43.54 24.88L43.51 24.93L43.50 24.96L43.47 25.02L43.46 25.04L43.45 25.10L43.44 25.13L43.42 25.19L43.42 25.22L43.41 25.28L43.41 25.31L43.41 25.37L43.41 25.40L43.42 25.46L43.42 25.49L43.43 25.54L43.44 25.57L43.45 25.60L43.69 26.43L43.86 27.17L43.97 27.89L44.03 28.58L44.04 29.24L44.01 29.88L43.95 30.51L43.85 31.11L43.73 31.71L43.57 32.30L43.40 32.88L43.20 33.45L42.98 34.03L42.74 34.61L42.48 35.19L42.21 35.77L41.93 36.36L41.64 36.95L41.33 37.55L41.02 38.16L40.71 38.78L40.71 38.78L40.71 38.78L40.71 38.78L40.39 39.40L40.39 39.41L40.39 39.41L40.39 39.41L40.07 40.04L40.07 40.04L40.07 40.04L40.07 40.05L39.76 40.68L39.76 40.68L39.75 40.69L39.75 40.69L39.45 41.34L39.45 41.34L39.45 41.34L39.44 41.35L39.15 42.00L39.15 42.01L39.14 42.01L39.14 42.02L38.86 42.68L38.86 42.68L38.85 42.69L38.85 42.70L38.58 43.37L38.58 43.38L38.58 43.38L38.58 43.39L38.33 44.07L38.32 44.08L38.32 44.09L38.32 44.10L38.09 44.79L38.09 44.80L38.09 44.81L38.08 44.82L37.88 45.52L37.88 45.54L37.88 45.55L37.87 45.56L37.71 46.27L37.70 46.29L37.70 46.30L37.70 46.32L37.56 47.04L37.56 47.05L37.56 47.07L37.56 47.09L37.46 47.82L37.46 47.83L37.46 47.85L37.46 47.87L37.41 48.61L37.41 48.63L37.41 48.65L37.41 48.67L37.41 49.42L37.41 49.44L37.41 49.46L37.41 49.49L37.47 50.23L37.48 50.26L37.48 50.28L37.48 50.31L37.61 51.05L37.61 51.08L37.62 51.10L37.62 51.13L37.81 51.86L37.82 51.89L37.82 51.92L37.83 51.94L38.09 52.66L38.10 52.69L38.11 52.72L38.12 52.74L38.45 53.44L38.46 53.46L38.48 53.49L38.49 53.51L38.88 54.18L38.90 54.20L38.92 54.22L38.93 54.25L39.39 54.87L39.41 54.90L39.43 54.92L39.44 54.94L39.96 55.52L39.98 55.54L40.00 55.56L40.02 55.58L40.60 56.13L40.62 56.14L40.64 56.16L40.65 56.18L41.29 56.68L41.31 56.70L41.33 56.71L41.34 56.72L42.03 57.19L42.05 57.21L42.07 57.22L42.09 57.23L42.81 57.65L42.83 57.66L42.86 57.67L42.91 57.70L42.94 57.71L43.00 57.73L43.03 57.74L43.08 57.75L43.11 57.76L43.17 57.76L43.20 57.77L43.26 57.77L43.29 57.77L43.35 57.76L43.38 57.76L43.44 57.75L43.47 57.74L43.53 57.73L43.55 57.72L43.61 57.70L43.64 57.68L43.69 57.66L43.72 57.64L43.77 57.61L43.79 57.59L43.84 57.56L43.86 57.54L43.90 57.50L43.92 57.47L43.94 57.45L45.43 55.72Z" fill="#FFFFFF"/><path d="M50 57Q47 42 68 37Q67 54 50 57Z" fill="#3E9B37"/><path d="M51.5 55.5Q57 48 65 41" fill="none" stroke="#7CC36B" stroke-width="1.3" stroke-linecap="round"/><path d="M84.00 -15.20L83.74 -15.19L83.49 -15.17L83.24 -15.14L82.99 -15.10L82.74 -15.04L82.49 -14.98L82.25 -14.90L82.01 -14.80L81.78 -14.70L81.55 -14.59L81.33 -14.46L81.11 -14.32L80.90 -14.18L80.70 -14.02L80.51 -13.85L80.32 -13.68L80.15 -13.49L79.98 -13.30L79.82 -13.10L79.68 -12.89L79.54 -12.67L79.41 -12.45L79.30 -12.22L79.20 -11.99L79.10 -11.75L79.02 -11.51L78.96 -11.26L75.43 3.69L75.41 3.84L75.40 4.00L75.41 4.16L75.43 4.31L75.47 4.46L75.52 4.61L75.59 4.75L75.67 4.89L75.76 5.02L75.87 5.13L75.98 5.24L76.11 5.33L76.25 5.41L76.39 5.48L76.54 5.53L76.69 5.57L76.84 5.59L77.00 5.60L77.16 5.59L77.31 5.57L77.46 5.53L77.61 5.48L77.75 5.41L77.89 5.33L78.02 5.24L78.13 5.13L78.24 5.02L88.02 -6.70L88.18 -6.90L88.32 -7.11L88.46 -7.33L88.59 -7.55L88.70 -7.78L88.80 -8.01L88.90 -8.25L88.98 -8.49L89.04 -8.74L89.10 -8.99L89.14 -9.24L89.17 -9.49L89.19 -9.74L89.20 -10.00L89.19 -10.26L89.17 -10.51L89.14 -10.76L89.10 -11.01L89.04 -11.26L88.98 -11.51L88.90 -11.75L88.80 -11.99L88.70 -12.22L88.59 -12.45L88.46 -12.67L88.32 -12.89L88.18 -13.10L88.02 -13.30L87.85 -13.49L87.68 -13.68L87.49 -13.85L87.30 -14.02L87.10 -14.18L86.89 -14.32L86.67 -14.46L86.45 -14.59L86.22 -14.70L85.99 -14.80L85.75 -14.90L85.51 -14.98L85.26 -15.04L85.01 -15.10L84.76 -15.14L84.51 -15.17L84.26 -15.19L84.00 -15.20Z" fill="#F37321"/><path d="M99.00 -0.20L98.74 -0.19L98.49 -0.17L98.24 -0.14L97.99 -0.10L97.74 -0.04L97.49 0.02L97.25 0.10L97.01 0.20L96.78 0.30L96.55 0.41L96.33 0.54L96.11 0.68L95.90 0.82L95.70 0.98L83.98 10.76L83.87 10.87L83.76 10.98L83.67 11.11L83.59 11.25L83.52 11.39L83.47 11.54L83.43 11.69L83.41 11.84L83.40 12.00L83.41 12.16L83.43 12.31L83.47 12.46L83.52 12.61L83.59 12.75L83.67 12.89L83.76 13.02L83.87 13.13L83.98 13.24L84.11 13.33L84.25 13.41L84.39 13.48L84.54 13.53L84.69 13.57L84.84 13.59L85.00 13.60L85.16 13.59L85.31 13.57L100.26 10.04L100.51 9.98L100.75 9.90L100.99 9.80L101.22 9.70L101.45 9.59L101.67 9.46L101.89 9.32L102.10 9.18L102.30 9.02L102.49 8.85L102.68 8.68L102.85 8.49L103.02 8.30L103.18 8.10L103.32 7.89L103.46 7.67L103.59 7.45L103.70 7.22L103.80 6.99L103.90 6.75L103.98 6.51L104.04 6.26L104.10 6.01L104.14 5.76L104.17 5.51L104.19 5.26L104.20 5.00L104.19 4.74L104.17 4.49L104.14 4.24L104.10 3.99L104.04 3.74L103.98 3.49L103.90 3.25L103.80 3.01L103.70 2.78L103.59 2.55L103.46 2.33L103.32 2.11L103.18 1.90L103.02 1.70L102.85 1.51L102.68 1.32L102.49 1.15L102.30 0.98L102.10 0.82L101.89 0.68L101.67 0.54L101.45 0.41L101.22 0.30L100.99 0.20L100.75 0.10L100.51 0.02L100.26 -0.04L100.01 -0.10L99.76 -0.14L99.51 -0.17L99.26 -0.19L99.00 -0.20Z" fill="#F37321"/></g><path d="M373.7795955566405 279.61892499999993Q364.03359091796864 279.61892499999993 358.8835408691405 274.4688749511718Q353.7334908203124 269.3188249023437 353.7334908203124 259.5728202636718V151.61502973632807Q353.7334908203124 141.8690250976562 358.8835408691405 136.71897504882807Q364.03359091796864 131.56892499999995 373.7795955566405 131.56892499999995H425.11826376953115Q441.0605501464843 131.56892499999995 452.24874106445304 136.25597272949213Q463.43693198242175 140.9430204589843 469.34602744140614 149.5530204589843Q475.2551229003905 158.1630204589843 475.2551229003905 169.86482954101558Q475.2551229003905 182.90254316406242 467.82036154785146 192.14254316406243Q460.3856001953124 201.38254316406244 447.61607749023426 204.66663862304682V201.24844770507806Q462.7537911132812 204.09482954101554 470.96150473632804 213.47778181152336Q479.1692183593749 222.86073408203117 479.1692183593749 237.57844770507808Q479.1692183593749 257.05025678710933 465.2307887939452 268.3345908935546Q451.2923592285155 279.61892499999993 427.1600728515624 279.61892499999993ZM390.55931845703117 251.33729291992182H421.9227364257812Q432.71625449218743 251.33729291992182 437.62596579589837 247.24734296874993Q442.5356770996093 243.15739301757804 442.5356770996093 234.97749311523432Q442.5356770996093 226.72168867187494 437.62596579589837 222.66969099121087Q432.71625449218743 218.61769331054683 421.9227364257812 218.61769331054683H390.55931845703117ZM390.55931845703117 190.3360612304687H418.08454550781244Q428.7262544921874 190.3360612304687 433.60687033691397 186.5902067382812Q438.4874861816405 182.8443522460937 438.4874861816405 175.02626142578117Q438.4874861816405 167.2081706054687 433.60687033691397 163.52936384277336Q428.7262544921874 159.85055708007806 418.08454550781244 159.85055708007806H390.55931845703117Z" fill="#FFFFFF" stroke="#FFFFFF" stroke-width="3.78" stroke-linejoin="round"/><defs><clipPath id="idot5"><rect x="448.19" y="171.68" width="126.00" height="164.64"/></clipPath></defs><path d="M519.6714046386718 281.49121137695306Q510.68949545898425 281.49121137695306 505.85444541015613 276.2361613281249Q501.019395361328 270.9811112792968 501.019395361328 261.1769157226562V194.70045698242183Q501.019395361328 184.82035688476554 505.85444541015613 179.60325910644525Q510.68949545898425 174.38616132812496 519.6714046386718 174.38616132812496Q528.6533138183593 174.38616132812496 533.5263161376952 179.60325910644525Q538.3993184570312 184.82035688476554 538.3993184570312 194.70045698242183V261.1769157226562Q538.3993184570312 270.9811112792968 533.6313161376952 276.2361613281249Q528.8633138183593 281.49121137695306 519.6714046386718 281.49121137695306ZM519.6714046386718 159.54950239257806Q509.6394954589843 159.54950239257806 504.2705885986327 154.86878645019524Q498.9016817382811 150.18807050781243 498.9016817382811 141.53254316406245Q498.9016817382811 132.8011112792968 504.2705885986327 128.1583476074218Q509.6394954589843 123.5155839355468 519.6714046386718 123.5155839355468Q529.7792183593749 123.5155839355468 535.1101729492186 128.1583476074218Q540.4411275390624 132.8011112792968 540.4411275390624 141.53254316406245Q540.4411275390624 150.18807050781243 535.1101729492186 154.86878645019524Q529.7792183593749 159.54950239257806 519.6714046386718 159.54950239257806Z" fill="#FFFFFF" stroke="#FFFFFF" stroke-width="3.78" stroke-linejoin="round" clip-path="url(#idot5)"/><path d="M511.27 159.22Q507.07 108.82 563.77 96.22Q557.47 148.72 511.27 159.22Z" fill="#3E9B37"/><path d="M513.37 157.12Q528.07 129.82 553.27 106.72" fill="none" stroke="#7CC36B" stroke-width="3.15" stroke-linecap="round"/><path d="M616.8305501464843 281.9871159179687Q601.1691182617187 281.9871159179687 590.8943068603514 277.09892499999995Q580.6194954589843 272.2107340820312 575.6060658935546 262.4811613281249Q570.592636328125 252.7515885742187 570.592636328125 238.04653852539056V203.7759843261718H563.5614046386718Q556.778163671875 203.7759843261718 553.0424477294921 200.2123161132812Q549.3067317871094 196.64864790039056 549.3067317871094 190.01721601562494Q549.3067317871094 183.3098795898437 553.0424477294921 179.7841636474609Q556.778163671875 176.25844770507808 563.5614046386718 176.25844770507808H570.592636328125V163.18274335937494Q570.592636328125 153.99083417968745 575.4656386474609 149.15578413085933Q580.3386409667968 144.32073408203118 589.3205501464843 144.32073408203118Q598.3024593261719 144.32073408203118 603.137509375 149.15578413085933Q607.9725594238281 153.99083417968745 607.9725594238281 163.18274335937494V176.25844770507808H625.1369319824219Q632.054268408203 176.25844770507808 635.7229366210936 179.7841636474609Q639.3916048339843 183.3098795898437 639.3916048339843 190.01721601562494Q639.3916048339843 196.64864790039056 635.7229366210936 200.2123161132812Q632.054268408203 203.7759843261718 625.1369319824219 203.7759843261718H607.9725594238281V236.8447294433593Q607.9725594238281 244.51101118164055 611.645034399414 248.21005659179679Q615.3175093749999 251.90910200195304 623.3101729492187 251.90910200195304Q626.2096956542969 251.90910200195304 628.9396956542969 251.27910200195305Q631.6696956542968 250.64910200195305 634.0378865722655 250.57319746093742Q637.3624593261718 250.36319746093744 639.5117934326172 252.61753156738274Q641.6611275390625 254.87186567382807 641.6611275390625 262.61148847656244Q641.6611275390625 268.82292036132804 639.759745703125 273.15068403320305Q637.8583638671874 277.47844770507805 632.9474092773437 279.40892499999995Q629.949218359375 280.5171159179687 624.9357887939452 281.2521159179687Q619.9223592285156 281.9871159179687 616.8305501464843 281.9871159179687Z" fill="#FFFFFF" stroke="#FFFFFF" stroke-width="3.78" stroke-linejoin="round"/><path d="M710.9055000976562 281.9871159179687Q692.000450048828 281.9871159179687 678.2606386474608 275.3430204589843Q664.5208272460937 268.6989249999999 657.1594454101562 256.52778181152337Q649.7980635742186 244.35663862304682 649.7980635742186 227.84254316406242Q649.7980635742186 211.88254316406244 656.8153499511718 199.77844770507807Q663.832636328125 187.6743522460937 676.1581136230468 180.7823045166015Q688.4835909179687 173.8902567871093 704.1981636718749 173.8902567871093Q715.7886409667968 173.8902567871093 725.1741182617187 177.66139997558588Q734.5595955566406 181.43254316406245 741.290977392578 188.4207340820312Q748.0223592285156 195.40892499999995 751.5455501464844 205.2991636474609Q755.0687410644531 215.18940229492182 755.0687410644531 227.42759321289057Q755.0687410644531 231.60987958984367 752.7119319824219 233.60487958984368Q750.3551229003906 235.59987958984368 745.3910274414062 235.59987958984368H681.0652229980468V217.93206586914056H727.6043453125L724.3784407714843 220.54568403320306Q724.3784407714843 212.89711591796868 722.2139180664062 207.99626142578117Q720.049395361328 203.09540693359367 715.9683022216796 200.6361228759765Q711.8872090820312 198.17683881835933 705.9186409667968 198.17683881835933Q699.3782637695311 198.17683881835933 694.5912660888671 201.19907514648432Q689.804268408203 204.2213114746093 687.2867934326171 210.134213696289Q684.7693184570312 216.04711591796868 684.7693184570312 224.86206586914057V226.60025678710932Q684.7693184570312 241.54063398437495 691.3792684082031 247.96715437011713Q697.989218359375 254.3936747558593 711.8618819335937 254.3936747558593Q716.5173091796875 254.3936747558593 722.5377364257812 253.29686567382805Q728.5581636718749 252.2000565917968 733.9776863769531 250.0469157226562Q739.4604500488281 247.9292020996093 743.49092734375 249.24991804199212Q747.5214046386718 250.57063398437492 749.7175478271483 253.81044538574213Q751.913691015625 257.05025678710933 752.1325478271484 261.2350681884765Q752.3514046386719 265.4198795898437 750.1729750732421 269.24035688476556Q747.9945455078124 273.06083417968745 743.1417818359374 275.23673872070304Q735.9258772949219 278.6498795898437 727.6447841552733 280.3184977539062Q719.3636910156249 281.9871159179687 710.9055000976562 281.9871159179687Z" fill="#FFFFFF" stroke="#FFFFFF" stroke-width="3.78" stroke-linejoin="round"/><path d="M797.8632137207031 281.5671159179687Q789.4354 281.5671159179687 784.9444454101563 276.9332090576171Q780.4534908203125 272.29930219726555 780.4534908203125 263.87148847656243V147.31636152343745Q780.4534908203125 138.81264326171868 785.2885408691407 134.21668867187492Q790.1235909179687 129.6207340820312 798.8195955566406 129.6207340820312Q806.2151229003906 129.6207340820312 810.5340297607422 132.48735456542963Q814.8529366210937 135.35397504882806 818.4457002929687 141.92721601562494L863.4768318847656 223.0126200683593H856.2204500488281L901.251581640625 141.92721601562494Q904.8443453125 135.35397504882806 909.1923476318359 132.48735456542963Q913.5403499511718 129.6207340820312 920.8017818359375 129.6207340820312Q929.2295955566406 129.6207340820312 933.7875978759765 134.21668867187492Q938.3456001953125 138.81264326171868 938.3456001953125 147.31636152343745V263.87148847656243Q938.3456001953125 272.29930219726555 933.8925978759765 276.9332090576171Q929.4395955566406 281.5671159179687 920.9358772949219 281.5671159179687Q912.5080635742187 281.5671159179687 908.017108984375 276.9332090576171Q903.5261543945312 272.29930219726555 903.5261543945312 263.87148847656243V191.5832438476562H907.8779634765624L873.969218359375 250.4238749511718Q871.1987410644531 255.0666386230468 867.8830251220703 257.3500681884765Q864.5673091796875 259.63349775390617 859.2363545898437 259.63349775390617Q853.9054 259.63349775390617 850.5137795166015 257.3121159179687Q847.122159033203 254.9907340820312 844.4275862792969 250.4238749511718L810.367032080078 191.50733930664057H815.2729366210938V263.87148847656243Q815.2729366210938 272.29930219726555 810.8199343017578 276.9332090576171Q806.3669319824219 281.5671159179687 797.8632137207031 281.5671159179687Z" fill="#F37321" stroke="#F37321" stroke-width="3.78" stroke-linejoin="round"/><path d="M984.1914046386718 281.49121137695306Q975.2094954589843 281.49121137695306 970.3744454101561 276.2361613281249Q965.539395361328 270.9811112792968 965.539395361328 261.1769157226562V194.70045698242183Q965.539395361328 184.82035688476554 970.3744454101561 179.60325910644525Q975.2094954589843 174.38616132812496 984.1914046386718 174.38616132812496Q993.1733138183594 174.38616132812496 998.0463161376953 179.60325910644525Q1002.9193184570312 184.82035688476554 1002.9193184570312 194.70045698242183V261.1769157226562Q1002.9193184570312 270.9811112792968 998.1513161376952 276.2361613281249Q993.3833138183593 281.49121137695306 984.1914046386718 281.49121137695306ZM984.1914046386718 159.54950239257806Q974.1594954589843 159.54950239257806 968.7905885986328 154.86878645019524Q963.4216817382812 150.18807050781243 963.4216817382812 141.53254316406245Q963.4216817382812 132.8011112792968 968.7905885986328 128.1583476074218Q974.1594954589843 123.5155839355468 984.1914046386718 123.5155839355468Q994.2992183593749 123.5155839355468 999.6301729492186 128.1583476074218Q1004.9611275390624 132.8011112792968 1004.9611275390624 141.53254316406245Q1004.9611275390624 150.18807050781243 999.6301729492186 154.86878645019524Q994.2992183593749 159.54950239257806 984.1914046386718 159.54950239257806Z" fill="#F37321" stroke="#F37321" stroke-width="3.78" stroke-linejoin="round"/><path d="M1081.3505501464842 281.9871159179687Q1065.6891182617187 281.9871159179687 1055.4143068603516 277.09892499999995Q1045.1394954589844 272.2107340820312 1040.1260658935546 262.4811613281249Q1035.1126363281248 252.7515885742187 1035.1126363281248 238.04653852539056V203.7759843261718H1028.0814046386718Q1021.2981636718749 203.7759843261718 1017.5624477294921 200.2123161132812Q1013.8267317871093 196.64864790039056 1013.8267317871093 190.01721601562494Q1013.8267317871093 183.3098795898437 1017.5624477294921 179.7841636474609Q1021.2981636718749 176.25844770507808 1028.0814046386718 176.25844770507808H1035.1126363281248V163.18274335937494Q1035.1126363281248 153.99083417968745 1039.9856386474607 149.15578413085933Q1044.8586409667969 144.32073408203118 1053.8405501464842 144.32073408203118Q1062.8224593261718 144.32073408203118 1067.6575093749998 149.15578413085933Q1072.492559423828 153.99083417968745 1072.492559423828 163.18274335937494V176.25844770507808H1089.6569319824218Q1096.5742684082031 176.25844770507808 1100.2429366210936 179.7841636474609Q1103.9116048339843 183.3098795898437 1103.9116048339843 190.01721601562494Q1103.9116048339843 196.64864790039056 1100.2429366210936 200.2123161132812Q1096.5742684082031 203.7759843261718 1089.6569319824218 203.7759843261718H1072.492559423828V236.8447294433593Q1072.492559423828 244.51101118164055 1076.1650343994138 248.21005659179679Q1079.8375093749999 251.90910200195304 1087.8301729492186 251.90910200195304Q1090.7296956542968 251.90910200195304 1093.4596956542969 251.27910200195305Q1096.1896956542969 250.64910200195305 1098.5578865722655 250.57319746093742Q1101.8824593261718 250.36319746093744 1104.0317934326172 252.61753156738274Q1106.1811275390623 254.87186567382807 1106.1811275390623 262.61148847656244Q1106.1811275390623 268.82292036132804 1104.2797457031247 273.15068403320305Q1102.3783638671873 277.47844770507805 1097.4674092773437 279.40892499999995Q1094.469218359375 280.5171159179687 1089.4557887939452 281.2521159179687Q1084.4423592285154 281.9871159179687 1081.3505501464842 281.9871159179687Z" fill="#F37321" stroke="#F37321" stroke-width="3.78" stroke-linejoin="round"/><path d="M1138.255500097656 281.5671159179687Q1128.929495458984 281.5671159179687 1123.989445410156 276.6941135986327Q1119.049395361328 271.8211112792968 1119.049395361328 262.6292020996093V193.17226606445305Q1119.049395361328 183.98035688476557 1123.8173976806638 179.14530683593745Q1128.5853999999997 174.31025678710932 1137.3573091796873 174.31025678710932Q1146.1292183593748 174.31025678710932 1150.8301729492186 179.14530683593745Q1155.5311275390623 183.98035688476557 1155.5311275390623 193.17226606445305V201.70892499999994H1153.4311275390623Q1155.4324593261717 189.10892499999994 1164.176554785156 181.7273045166015Q1172.9206502441405 174.34568403320304 1185.993791113281 173.8902567871093Q1192.0129366210936 173.73844770507804 1195.0402229980468 177.03392499999993Q1198.0675093749999 180.3294022949218 1198.219318457031 189.0076933105468Q1198.3711275390624 196.67141157226555 1195.2008888916014 201.06622297363276Q1192.0306502441404 205.46103437499994 1183.2764546874998 206.3592252929687L1178.388263769531 206.7792252929687Q1167.3215047363278 207.77103437499994 1162.2195070556638 212.9109843261718Q1157.1175093749998 218.05093427734369 1157.1175093749998 228.14359785156245V262.6292020996093Q1157.1175093749998 271.8211112792968 1152.2824593261716 276.6941135986327Q1147.4474092773435 281.5671159179687 1138.255500097656 281.5671159179687Z" fill="#F37321" stroke="#F37321" stroke-width="3.78" stroke-linejoin="round"/><path d="M1248.664922705078 281.9871159179687Q1236.7303499511718 281.9871159179687 1227.5460158447263 277.5480204589843Q1218.361681738281 273.10892499999994 1213.2255385498047 265.423686352539Q1208.0893953613281 257.73844770507804 1208.0893953613281 247.96206586914056Q1208.0893953613281 236.62206586914056 1213.9693953613282 230.07411359863275Q1219.849395361328 223.52616132812494 1232.9452999023438 220.65320905761712Q1246.0412044433592 217.7802567871093 1267.6307271484375 217.7802567871093H1279.2034908203125V235.44807050781242H1267.5725362304686Q1259.3799727539063 235.44807050781242 1254.090738745117 236.64102277832023Q1248.801504736328 237.83397504882805 1246.2840297607422 240.2084977539062Q1243.7665547851561 242.58302045898432 1243.7665547851561 246.43387495117182Q1243.7665547851561 251.35244306640618 1247.18855246582 254.48853620605462Q1250.6105501464842 257.62462934570306 1257.2091182617187 257.62462934570306Q1262.3958772949218 257.62462934570306 1266.4769704345704 255.30829755859367Q1270.5580635742187 252.9919657714843 1273.0375862792969 248.8640635498046Q1275.517108984375 244.73616132812492 1275.517108984375 239.2634977539062V214.9794022949218Q1275.517108984375 207.29540693359368 1271.7016817382812 204.217504711914Q1267.8862544921874 201.13960249023432 1258.4413045410156 201.13960249023432Q1253.289972753906 201.13960249023432 1247.0595455078123 202.27436384277337Q1240.8291182617186 203.40912519531244 1232.9250228027342 206.30864790039055Q1227.3258772949218 208.33274335937494 1223.275161352539 206.88931379394526Q1219.2244454101562 205.44588422851558 1217.0751113037109 201.94926374511715Q1214.9257771972655 198.4526432617187 1214.9928249267577 194.22987958984368Q1215.0598726562498 190.0071159179687 1217.6785408691405 186.15754316406245Q1220.2972090820313 182.3079704101562 1225.8963545898437 180.30158857421867Q1235.8245455078124 176.57977949218744 1244.4143068603516 175.2350181396484Q1253.0040682128906 173.8902567871093 1260.0858772949218 173.8902567871093Q1277.3514046386717 173.8902567871093 1288.5244069580076 178.84549543457024Q1299.6974092773437 183.80073408203117 1305.2649343017579 194.01735456542963Q1310.8324593261718 204.23397504882806 1310.8324593261718 220.14083417968743V262.6292020996093Q1310.8324593261718 271.8211112792968 1306.4085524658203 276.6941135986327Q1301.9846456054686 281.5671159179687 1293.5568318847654 281.5671159179687Q1285.1290181640625 281.5671159179687 1280.600111303711 276.6941135986327Q1276.0712044433592 271.8211112792968 1276.0712044433592 262.6292020996093V257.24254316406245L1277.3489180664062 260.0585478027343Q1276.2812044433592 266.73807050781244 1272.4455385498045 271.6237364013671Q1268.60987265625 276.5094022949218 1262.569206762695 279.2482591064453Q1256.5285408691404 281.9871159179687 1248.664922705078 281.9871159179687Z" fill="#F37321" stroke="#F37321" stroke-width="3.78" stroke-linejoin="round"/></svg>